name analog
datacolumns 19
datarows 66
range 0.49100000000000027 0.5235000000000003
endheader
time	ground_force_vx	ground_force_vy	ground_force_vz	ground_force_px	ground_force_py	ground_force_pz	l_ground_force_vx	l_ground_force_vy	l_ground_force_vz	l_ground_force_px	l_ground_force_py	l_ground_force_pz	ground_torque_x	ground_torque_y	ground_torque_z	l_ground_torque_x	l_ground_torque_y	l_ground_torque_z
0.49100000000000027	-0.0	-0.0	-0.0	-2.91654896736145	-2.742345333099365	-796.828125	-0.0	-0.0	-0.0	-0.0	-0.0	-0.0	-0.0	-0.0	-0.0	-0.0	-0.0	-0.0
0.49150000000000027	-0.0	-0.0	-0.0	-3.383787155151367	-3.365922689437866	-797.1810302734375	-0.0	-0.0	-0.0	-0.0	-0.0	-0.0	-0.0	-0.0	-0.0	-0.0	-0.0	-0.0
0.49200000000000027	-0.0	-0.0	-0.0	-3.78183388710022	-3.935280084609986	-799.085205078125	-0.0	-0.0	-0.0	-0.0	-0.0	-0.0	-0.0	-0.0	-0.0	-0.0	-0.0	-0.0
0.49250000000000027	-0.0	-0.0	-0.0	-3.952236175537109	-4.629588127136231	-798.73291015625	-0.0	-0.0	-0.0	-0.0	-0.0	-0.0	-0.0	-0.0	-0.0	-0.0	-0.0	-0.0
0.49300000000000027	-0.0	-0.0	-0.0	-3.862873554229736	-4.5235137939453125	-799.4585571289062	-0.0	-0.0	-0.0	-0.0	-0.0	-0.0	-0.0	-0.0	-0.0	-0.0	-0.0	-0.0
0.49350000000000027	-0.0	-0.0	-0.0	-4.532278537750244	-4.86632776260376	-799.9160766601562	-0.0	-0.0	-0.0	-0.0	-0.0	-0.0	-0.0	-0.0	-0.0	-0.0	-0.0	-0.0
0.49400000000000027	-0.0	-0.0	-0.0	-4.39419412612915	-5.499576091766357	-802.0336303710938	-0.0	-0.0	-0.0	-0.0	-0.0	-0.0	-0.0	-0.0	-0.0	-0.0	-0.0	-0.0
0.4945000000000003	-0.0	-0.0	-0.0	-3.964829444885254	-5.361001014709473	-804.32275390625	-0.0	-0.0	-0.0	-0.0	-0.0	-0.0	-0.0	-0.0	-0.0	-0.0	-0.0	-0.0
0.4950000000000003	-0.0	-0.0	-0.0	-3.822938680648804	-5.219388961791992	-803.7337036132812	-0.0	-0.0	-0.0	-0.0	-0.0	-0.0	-0.0	-0.0	-0.0	-0.0	-0.0	-0.0
0.4955000000000003	-0.0	-0.0	-0.0	-3.6858341693878174	-4.482588768005371	-804.2340698242188	-0.0	-0.0	-0.0	-0.0	-0.0	-0.0	-0.0	-0.0	-0.0	-0.0	-0.0	-0.0
0.4960000000000003	-0.0	-0.0	-0.0	-3.200180053710937	-4.200517177581787	-804.7943725585938	-0.0	-0.0	-0.0	-0.0	-0.0	-0.0	-0.0	-0.0	-0.0	-0.0	-0.0	-0.0
0.4965000000000003	-0.0	-0.0	-0.0	-3.1739742755889893	-3.9217376708984375	-803.8842163085938	-0.0	-0.0	-0.0	-0.0	-0.0	-0.0	-0.0	-0.0	-0.0	-0.0	-0.0	-0.0
0.4970000000000003	-0.0	-0.0	-0.0	-3.0331573486328125	-3.514526844024658	-801.466796875	-0.0	-0.0	-0.0	-0.0	-0.0	-0.0	-0.0	-0.0	-0.0	-0.0	-0.0	-0.0
0.4975000000000003	-0.0	-0.0	-0.0	-2.5998780727386475	-3.183221340179444	-801.2642822265625	-0.0	-0.0	-0.0	-0.0	-0.0	-0.0	-0.0	-0.0	-0.0	-0.0	-0.0	-0.0
0.4980000000000003	-0.0	-0.0	-0.0	-2.9561755657196045	-2.534107446670532	-801.5679321289062	-0.0	-0.0	-0.0	-0.0	-0.0	-0.0	-0.0	-0.0	-0.0	-0.0	-0.0	-0.0
0.4985000000000003	-0.0	-0.0	-0.0	-3.607220411300659	-3.234868288040161	-802.6282958984375	-0.0	-0.0	-0.0	-0.0	-0.0	-0.0	-0.0	-0.0	-0.0	-0.0	-0.0	-0.0
0.4990000000000003	-0.0	-0.0	-0.0	-3.402526378631592	-2.763042449951172	-802.6787719726562	-0.0	-0.0	-0.0	-0.0	-0.0	-0.0	-0.0	-0.0	-0.0	-0.0	-0.0	-0.0
0.4995000000000003	-0.0	-0.0	-0.0	-3.6700899600982666	-2.9268605709075928	-803.484375	-0.0	-0.0	-0.0	-0.0	-0.0	-0.0	-0.0	-0.0	-0.0	-0.0	-0.0	-0.0
0.5000000000000002	-0.0	-0.0	-0.0	-4.12844705581665	-3.146840810775757	-802.8759765625	-0.0	-0.0	-0.0	-0.0	-0.0	-0.0	-0.0	-0.0	-0.0	-0.0	-0.0	-0.0
0.5005000000000003	-0.0	-0.0	-0.0	-4.48515510559082	-3.01813006401062	-805.0552368164062	-0.0	-0.0	-0.0	-0.0	-0.0	-0.0	-0.0	-0.0	-0.0	-0.0	-0.0	-0.0
0.5010000000000003	-0.0	-0.0	-0.0	-4.6231689453125	-3.273369312286377	-803.885986328125	-0.0	-0.0	-0.0	-0.0	-0.0	-0.0	-0.0	-0.0	-0.0	-0.0	-0.0	-0.0
0.5015000000000003	-0.0	-0.0	-0.0	-4.651108264923096	-2.8237955570220947	-801.6703491210938	-0.0	-0.0	-0.0	-0.0	-0.0	-0.0	-0.0	-0.0	-0.0	-0.0	-0.0	-0.0
0.5020000000000002	-0.0	-0.0	-0.0	-4.781084060668945	-2.941303253173828	-801.766357421875	-0.0	-0.0	-0.0	-0.0	-0.0	-0.0	-0.0	-0.0	-0.0	-0.0	-0.0	-0.0
0.5025000000000003	-0.0	-0.0	-0.0	-5.10210657119751	-2.989328622817993	-800.7742309570312	-0.0	-0.0	-0.0	-0.0	-0.0	-0.0	-0.0	-0.0	-0.0	-0.0	-0.0	-0.0
0.5030000000000003	-0.0	-0.0	-0.0	-4.549736022949219	-2.8346197605133057	-799.3407592773438	-0.0	-0.0	-0.0	-0.0	-0.0	-0.0	-0.0	-0.0	-0.0	-0.0	-0.0	-0.0
0.5035000000000003	-0.0	-0.0	-0.0	-4.930322647094727	-2.893857002258301	-798.9641723632812	-0.0	-0.0	-0.0	-0.0	-0.0	-0.0	-0.0	-0.0	-0.0	-0.0	-0.0	-0.0
0.5040000000000002	-0.0	-0.0	-0.0	-4.871192932128906	-2.263613224029541	-800.072265625	-0.0	-0.0	-0.0	-0.0	-0.0	-0.0	-0.0	-0.0	-0.0	-0.0	-0.0	-0.0
0.5045000000000003	-0.0	-0.0	-0.0	-4.967805862426758	-1.984286427497864	-797.0523071289062	-0.0	-0.0	-0.0	-0.0	-0.0	-0.0	-0.0	-0.0	-0.0	-0.0	-0.0	-0.0
0.5050000000000003	-0.0	-0.0	-0.0	-5.019092082977295	-2.162412405014038	-797.1270751953125	-0.0	-0.0	-0.0	-0.0	-0.0	-0.0	-0.0	-0.0	-0.0	-0.0	-0.0	-0.0
0.5055000000000003	-0.0	-0.0	-0.0	-5.2981438636779785	-2.297645092010498	-798.5856323242188	-0.0	-0.0	-0.0	-0.0	-0.0	-0.0	-0.0	-0.0	-0.0	-0.0	-0.0	-0.0
0.5060000000000002	-0.0	-0.0	-0.0	-5.70947265625	-3.3323161602020264	-798.0499877929688	-0.0	-0.0	-0.0	-0.0	-0.0	-0.0	-0.0	-0.0	-0.0	-0.0	-0.0	-0.0
0.5065000000000003	-0.0	-0.0	-0.0	-6.064084053039551	-3.0989527702331543	-797.29931640625	-0.0	-0.0	-0.0	-0.0	-0.0	-0.0	-0.0	-0.0	-0.0	-0.0	-0.0	-0.0
0.5070000000000003	-0.0	-0.0	-0.0	-5.844100475311279	-3.59924840927124	-797.6087646484375	-0.0	-0.0	-0.0	-0.0	-0.0	-0.0	-0.0	-0.0	-0.0	-0.0	-0.0	-0.0
0.5075000000000003	-0.0	-0.0	-0.0	-5.654122829437256	-4.021060943603516	-796.86328125	-0.0	-0.0	-0.0	-0.0	-0.0	-0.0	-0.0	-0.0	-0.0	-0.0	-0.0	-0.0
0.5080000000000002	-0.0	-0.0	-0.0	-5.508632183074951	-4.155529975891113	-797.1714477539062	-0.0	-0.0	-0.0	-0.0	-0.0	-0.0	-0.0	-0.0	-0.0	-0.0	-0.0	-0.0
0.5085000000000003	-0.0	-0.0	-0.0	-5.006931304931641	-3.9662678241729736	-796.4649047851562	-0.0	-0.0	-0.0	-0.0	-0.0	-0.0	-0.0	-0.0	-0.0	-0.0	-0.0	-0.0
0.5090000000000003	-0.0	-0.0	-0.0	-4.739223957061768	-3.9770214557647705	-796.4207763671875	-0.0	-0.0	-0.0	-0.0	-0.0	-0.0	-0.0	-0.0	-0.0	-0.0	-0.0	-0.0
0.5095000000000003	-0.0	-0.0	-0.0	-4.404283046722412	-4.434561252593994	-797.7899780273438	-0.0	-0.0	-0.0	-0.0	-0.0	-0.0	-0.0	-0.0	-0.0	-0.0	-0.0	-0.0
0.5100000000000002	-0.0	-0.0	-0.0	-4.471447467803955	-4.902172088623047	-796.2406005859375	-0.0	-0.0	-0.0	-0.0	-0.0	-0.0	-0.0	-0.0	-0.0	-0.0	-0.0	-0.0
0.5105000000000003	-0.0	-0.0	-0.0	-4.963254451751709	-5.14789342880249	-795.71435546875	-0.0	-0.0	-0.0	-0.0	-0.0	-0.0	-0.0	-0.0	-0.0	-0.0	-0.0	-0.0
0.5110000000000003	-0.0	-0.0	-0.0	-4.952712535858154	-5.347824096679688	-797.3950805664062	-0.0	-0.0	-0.0	-0.0	-0.0	-0.0	-0.0	-0.0	-0.0	-0.0	-0.0	-0.0
0.5115000000000003	-0.0	-0.0	-0.0	-4.792366981506348	-5.483316898345947	-796.2371215820312	-0.0	-0.0	-0.0	-0.0	-0.0	-0.0	-0.0	-0.0	-0.0	-0.0	-0.0	-0.0
0.5120000000000002	-0.0	-0.0	-0.0	-5.142336368560791	-5.704345703125	-798.6827392578125	-0.0	-0.0	-0.0	-0.0	-0.0	-0.0	-0.0	-0.0	-0.0	-0.0	-0.0	-0.0
0.5125000000000003	-0.0	-0.0	-0.0	-5.373744487762451	-6.286068439483643	-796.6485595703125	-0.0	-0.0	-0.0	-0.0	-0.0	-0.0	-0.0	-0.0	-0.0	-0.0	-0.0	-0.0
0.5130000000000003	-0.0	-0.0	-0.0	-5.021871566772461	-5.767176628112793	-796.0048217773438	-0.0	-0.0	-0.0	-0.0	-0.0	-0.0	-0.0	-0.0	-0.0	-0.0	-0.0	-0.0
0.5135000000000003	-0.0	-0.0	-0.0	-5.935488700866699	-6.013315200805664	-797.2506713867188	-0.0	-0.0	-0.0	-0.0	-0.0	-0.0	-0.0	-0.0	-0.0	-0.0	-0.0	-0.0
0.5140000000000002	-0.0	-0.0	-0.0	-5.84654712677002	-6.386406898498535	-798.4579467773438	-0.0	-0.0	-0.0	-0.0	-0.0	-0.0	-0.0	-0.0	-0.0	-0.0	-0.0	-0.0
0.5145000000000003	-0.0	-0.0	-0.0	-5.788424015045166	-6.554649353027344	-797.5209350585938	-0.0	-0.0	-0.0	-0.0	-0.0	-0.0	-0.0	-0.0	-0.0	-0.0	-0.0	-0.0
0.5150000000000003	-0.0	-0.0	-0.0	-6.035764217376709	-5.834173679351807	-799.0043334960938	-0.0	-0.0	-0.0	-0.0	-0.0	-0.0	-0.0	-0.0	-0.0	-0.0	-0.0	-0.0
0.5155000000000003	-0.0	-0.0	-0.0	-5.6993560791015625	-5.9110918045043945	-798.8129272460938	-0.0	-0.0	-0.0	-0.0	-0.0	-0.0	-0.0	-0.0	-0.0	-0.0	-0.0	-0.0
0.5160000000000002	-0.0	-0.0	-0.0	-5.977104187011719	-5.526084899902344	-798.6987915039062	-0.0	-0.0	-0.0	-0.0	-0.0	-0.0	-0.0	-0.0	-0.0	-0.0	-0.0	-0.0
0.5165000000000003	-0.0	-0.0	-0.0	-5.60031795501709	-5.832790374755859	-800.5010375976562	-0.0	-0.0	-0.0	-0.0	-0.0	-0.0	-0.0	-0.0	-0.0	-0.0	-0.0	-0.0
0.5170000000000003	-0.0	-0.0	-0.0	-5.818475246429443	-5.258547782897949	-800.1490478515625	-0.0	-0.0	-0.0	-0.0	-0.0	-0.0	-0.0	-0.0	-0.0	-0.0	-0.0	-0.0
0.5175000000000003	-0.0	-0.0	-0.0	-5.739770412445068	-5.665105819702148	-799.16845703125	-0.0	-0.0	-0.0	-0.0	-0.0	-0.0	-0.0	-0.0	-0.0	-0.0	-0.0	-0.0
0.5180000000000002	-0.0	-0.0	-0.0	-5.848887920379639	-5.466182231903076	-798.4182739257812	-0.0	-0.0	-0.0	-0.0	-0.0	-0.0	-0.0	-0.0	-0.0	-0.0	-0.0	-0.0
0.5185000000000003	-0.0	-0.0	-0.0	-5.629936218261719	-5.475616455078125	-799.2079467773438	-0.0	-0.0	-0.0	-0.0	-0.0	-0.0	-0.0	-0.0	-0.0	-0.0	-0.0	-0.0
0.5190000000000003	-0.0	-0.0	-0.0	-5.400622844696045	-5.179152965545654	-798.5778198242188	-0.0	-0.0	-0.0	-0.0	-0.0	-0.0	-0.0	-0.0	-0.0	-0.0	-0.0	-0.0
0.5195000000000003	-0.0	-0.0	-0.0	-4.954229354858398	-5.4975199699401855	-799.599365234375	-0.0	-0.0	-0.0	-0.0	-0.0	-0.0	-0.0	-0.0	-0.0	-0.0	-0.0	-0.0
0.5200000000000002	-0.0	-0.0	-0.0	-5.1742095947265625	-5.666567802429199	-799.9151000976562	-0.0	-0.0	-0.0	-0.0	-0.0	-0.0	-0.0	-0.0	-0.0	-0.0	-0.0	-0.0
0.5205000000000003	-0.0	-0.0	-0.0	-5.131927013397217	-5.4182000160217285	-798.3352661132812	-0.0	-0.0	-0.0	-0.0	-0.0	-0.0	-0.0	-0.0	-0.0	-0.0	-0.0	-0.0
0.5210000000000004	-0.0	-0.0	-0.0	-5.475193977355957	-5.845401287078857	-799.0250854492188	-0.0	-0.0	-0.0	-0.0	-0.0	-0.0	-0.0	-0.0	-0.0	-0.0	-0.0	-0.0
0.5215000000000003	-0.0	-0.0	-0.0	-5.183442115783691	-5.621329307556152	-795.7267456054688	-0.0	-0.0	-0.0	-0.0	-0.0	-0.0	-0.0	-0.0	-0.0	-0.0	-0.0	-0.0
0.5220000000000002	-0.0	-0.0	-0.0	-5.103329181671143	-5.304477691650391	-795.216064453125	-0.0	-0.0	-0.0	-0.0	-0.0	-0.0	-0.0	-0.0	-0.0	-0.0	-0.0	-0.0
0.5225000000000003	-0.0	-0.0	-0.0	-5.281595706939697	-5.7389984130859375	-796.7379760742188	-0.0	-0.0	-0.0	-0.0	-0.0	-0.0	-0.0	-0.0	-0.0	-0.0	-0.0	-0.0
0.5230000000000004	-0.0	-0.0	-0.0	-5.192233562469482	-4.974203586578369	-796.0319213867188	-0.0	-0.0	-0.0	-0.0	-0.0	-0.0	-0.0	-0.0	-0.0	-0.0	-0.0	-0.0
0.5235000000000003	-0.0	-0.0	-0.0	-5.263420104980469	-5.383570671081543	-796.3145141601562	-0.0	-0.0	-0.0	-0.0	-0.0	-0.0	-0.0	-0.0	-0.0	-0.0	-0.0	-0.0
